<svg xmlns="http://www.w3.org/2000/svg" viewBox="0 0 105.92 105.92"><defs><style>.cls-1{fill:#77ade0;}</style></defs><title>Asset 103</title><g id="Layer_2" data-name="Layer 2"><g id="_8_-_Icons" data-name="8 - Icons"><path class="cls-1" d="M83.71,105.92H25.63a8.56,8.56,0,0,1-8.55-8.54V46.13H20.5V97.38a5.13,5.13,0,0,0,5.13,5.13H83.71a5.13,5.13,0,0,0,5.13-5.13V83.71h3.42V97.38A8.56,8.56,0,0,1,83.71,105.92Z"/><path class="cls-1" d="M92.26,56.38H88.84V8.54a5.13,5.13,0,0,0-5.13-5.12H25.63A5.13,5.13,0,0,0,20.5,8.54V18.79H17.08V8.54A8.56,8.56,0,0,1,25.63,0H83.71a8.56,8.56,0,0,1,8.55,8.54Z"/><rect class="cls-1" x="47.84" y="95.67" width="13.67" height="3.42"/><rect class="cls-1" x="18.79" y="88.84" width="71.75" height="3.42"/><rect class="cls-1" x="18.79" y="10.25" width="71.75" height="3.42"/><path class="cls-1" d="M71.75,47.84H0V17.08H71.75ZM3.42,44.42H68.34V20.5H3.42Z"/><rect class="cls-1" x="41" y="23.92" width="23.92" height="3.42"/><rect class="cls-1" x="41" y="30.75" width="23.92" height="3.42"/><rect class="cls-1" x="41" y="37.59" width="23.92" height="3.42"/><path class="cls-1" d="M37.59,41H6.83V23.92H37.59ZM10.25,37.59H34.17V27.34H10.25Z"/><path class="cls-1" d="M105.92,85.42H34.17V54.67h71.75ZM37.59,82h64.92V58.09H37.59Z"/><rect class="cls-1" x="75.17" y="61.5" width="23.92" height="3.42"/><rect class="cls-1" x="75.17" y="68.34" width="23.92" height="3.42"/><rect class="cls-1" x="75.17" y="75.17" width="23.92" height="3.42"/><path class="cls-1" d="M71.75,78.59H41V61.5H71.75ZM44.42,75.17H68.34V64.92H44.42Z"/></g></g></svg>